<?xml version="1.0" encoding="utf-8" ?>
<svg xmlns="http://www.w3.org/2000/svg" xmlns:xlink="http://www.w3.org/1999/xlink" width="1696" height="1696">
	<!-- <path fill="white" transform="matrix(1.65625 0 0 1.65625 0.000244141 0)" d="M0 0L1024 0L1024 1024L0 1024L0 0Z"/> -->
	<path fill="#AFA69F" transform="matrix(1.65625 0 0 1.65625 0.000244141 0)" d="M107.701 464.418C123.466 496.377 142.859 514.703 176.703 526.206C186.477 529.528 196.769 531.16 207.024 532.129C212.061 532.605 217.41 532.578 222.339 533.733C223.986 534.119 225.036 534.313 225.901 535.809C225.598 537.139 225.448 537.458 224.211 538.244C223.334 538.8 222.563 538.984 221.555 539.118L220.935 539.608C213.832 541.89 205.492 541.976 198.136 541.051C167.013 537.137 131.021 516.5 112.042 491.566C107.832 486.035 102.486 477.407 103.675 470.18C104.144 467.33 105.473 466.112 107.701 464.418Z"/>
	<path fill="#B60402" transform="matrix(1.65625 0 0 1.65625 0.000244141 0)" d="M440.832 167.097C446.372 193.79 442.098 219.807 426.998 242.794Q426.347 243.783 425.672 244.756Q424.996 245.729 424.297 246.685Q423.598 247.641 422.876 248.579Q422.153 249.518 421.408 250.438Q420.663 251.359 419.895 252.26Q419.127 253.162 418.338 254.045Q417.548 254.927 416.737 255.79Q415.926 256.653 415.094 257.496Q414.261 258.338 413.409 259.16Q412.556 259.982 411.683 260.783Q410.811 261.584 409.919 262.363Q409.027 263.142 408.116 263.898Q407.205 264.655 406.275 265.389Q405.346 266.123 404.399 266.834Q403.452 267.545 402.488 268.233Q401.523 268.92 400.542 269.584Q399.561 270.247 398.564 270.887Q397.567 271.526 396.555 272.14Q395.543 272.755 394.515 273.344Q393.488 273.933 392.447 274.497Q391.405 275.061 390.35 275.599Q389.295 276.137 388.227 276.649Q387.159 277.161 386.079 277.647Q384.999 278.132 383.907 278.591Q382.815 279.05 381.713 279.482Q380.61 279.913 379.497 280.318Q378.384 280.722 377.261 281.099Q376.138 281.476 375.007 281.825Q373.875 282.175 372.735 282.496Q371.595 282.817 370.448 283.11Q369.3 283.403 368.146 283.668Q366.991 283.933 365.831 284.169C337.588 289.927 310.727 284.036 286.907 268.123C273.743 259.328 260.869 246.076 254.157 231.582C257.967 233.663 260.151 239.137 263.104 242.379C266.082 245.65 269.399 248.836 272.741 251.731C291.624 268.088 316.361 275.388 341.17 273.565C373.115 271.216 399.796 255.438 418.437 229.549C424.003 221.82 429.284 212.939 432.075 203.777C435.45 192.695 436.219 181.709 438.697 170.558C438.946 169.434 439.305 168.645 440.11 167.805C440.343 167.561 440.591 167.333 440.832 167.097Z"/>
	<path fill="#AFA6A0" transform="matrix(1.65625 0 0 1.65625 0.000244141 0)" d="M645.431 49.6986C685.021 45.6758 725.057 53.9423 756.578 79.4343C762.951 84.5884 772.811 91.9608 776.297 99.4791C779.218 102.586 781.771 105.875 784.146 109.419C791.93 117.069 799.369 126.885 805.084 136.162C806.555 138.551 812.897 151.698 813.903 152.621C814.271 152.958 815.296 152.996 815.773 152.986C822.303 152.845 828.937 150.474 835.473 149.796C846.721 148.631 875.891 151.127 885.545 156.311L884.889 156.783C879.707 155.809 874.536 153.931 869.288 152.878C850.634 149.136 833.153 150.615 814.745 154.667C816.403 159.648 818.136 164.611 819.425 169.702Q828.983 170.185 838.312 172.323C845.773 173.999 875.123 183.23 880.318 188.507C880.498 188.691 880.611 188.93 880.758 189.142C875.813 187.528 871.336 184.72 866.584 182.653C852.481 176.521 835.35 171.063 819.921 171.074C820.133 175.366 820.391 179.661 820.547 183.956C829.931 190.049 855.275 206.995 860.142 216.806C847.511 204.736 834.804 193.433 819.413 184.958C818.043 189.353 816.789 193.834 815.166 198.142C821.181 204.372 831.344 217.253 834.583 225.186L834.513 226.121C831.734 224.498 830.363 219.36 828.566 216.641C824.611 210.653 819.593 204.013 814.502 198.933C806.747 215.978 794.292 231.94 778.375 242.068C773.252 245.327 766.803 247.842 762.063 251.498C750.867 256.675 737.032 260.281 724.631 260.017Q727.559 242.776 731.745 225.796Q735.932 208.817 741.355 192.191C738.164 190.726 735.674 189.039 733.104 186.686C727.745 191.343 722.382 196.058 717.542 201.261C714.664 204.354 712.227 207.84 709.189 210.777C711.43 204.481 726.857 190.958 732.281 186.022C730.811 183.257 729.817 180.331 728.764 177.391C719.696 179.162 709.045 184.303 700.977 188.908C698.993 190.041 693.409 194.547 691.486 194.48C691.615 194.241 691.703 193.975 691.872 193.762C695.584 189.102 722.291 177.982 729.025 175.982L729.692 169.861Q722.114 169.852 714.58 170.67Q707.046 171.488 699.647 173.125C695.718 173.957 691.604 175.609 687.649 175.988C688.794 175.024 691.585 174.549 693.076 174.129C705.093 170.744 716.884 169.384 729.325 168.8C730.417 167.927 730.748 166.273 731.261 164.976C734.222 157.013 737.072 150.812 743.178 144.754L746.266 141.421C740.502 136.282 734.573 131.317 728.938 126.037C721.417 118.99 714.343 111.446 706.953 104.259Q691.282 89.3096 675.2 74.8025Q668.198 68.5069 660.861 62.6061C656.101 58.8136 649.064 54.508 645.431 49.6986Z"/>
	<path transform="matrix(1.65625 0 0 1.65625 0.000244141 0)" d="M784.146 109.419C785.287 114.048 786.098 118.967 784.18 123.524C782.988 126.355 780.71 128.377 777.845 129.419C772.488 131.367 766.091 130.12 761.117 127.654Q760.54 127.372 759.977 127.061Q759.415 126.75 758.869 126.411Q758.324 126.072 757.796 125.706Q757.268 125.339 756.759 124.947Q756.251 124.554 755.763 124.136Q755.275 123.718 754.808 123.276Q754.342 122.834 753.899 122.369Q753.456 121.904 753.037 121.416Q752.618 120.929 752.224 120.422Q751.83 119.914 751.463 119.387Q751.095 118.86 750.755 118.315Q750.414 117.77 750.102 117.208Q749.79 116.647 749.506 116.07Q749.223 115.493 748.969 114.903Q748.716 114.313 748.492 113.71Q748.269 113.108 748.076 112.495C746.659 107.844 746.888 102.997 749.333 98.7373C751.097 95.6629 753.827 93.7662 757.261 92.922C764.174 91.2222 770.716 96.0101 776.297 99.4791C779.218 102.586 781.771 105.875 784.146 109.419Z"/>
	<path fill="white" transform="matrix(1.65625 0 0 1.65625 0.000244141 0)" d="M761.056 101.331C763.031 101.401 764.215 101.845 765.635 103.246C766.892 104.486 767.517 105.939 767.46 107.714C767.4 109.566 766.377 110.425 765.102 111.565C763.401 111.422 761.957 111.201 760.55 110.156C759.282 109.214 758.41 107.914 758.349 106.289C758.262 103.969 759.498 102.796 761.056 101.331Z"/>
	<path transform="matrix(1.65625 0 0 1.65625 0.000244141 0)" d="M745.406 147.808C746.071 143.773 747.162 141.983 750.576 139.62C758.623 134.049 771.489 132.202 780.97 134.213C784.256 134.91 787.644 136.408 789.39 139.438C790.812 141.905 790.77 144.786 789.996 147.456C787.809 155 781.755 163.274 776.573 169.108C775.456 177.364 774.085 185.832 766.927 191.225C761.872 195.033 755.448 195.602 749.382 194.575C746.62 194.107 743.889 193.405 741.355 192.191C738.164 190.726 735.674 189.039 733.104 186.686C727.745 191.343 722.382 196.058 717.542 201.261C714.664 204.354 712.227 207.84 709.189 210.777C711.43 204.481 726.857 190.958 732.281 186.022C730.811 183.257 729.817 180.331 728.764 177.391C719.696 179.162 709.045 184.303 700.977 188.908C698.993 190.041 693.409 194.547 691.486 194.48C691.615 194.241 691.703 193.975 691.872 193.762C695.584 189.102 722.291 177.982 729.025 175.982L729.692 169.861Q722.114 169.852 714.58 170.67Q707.046 171.488 699.647 173.125C695.718 173.957 691.604 175.609 687.649 175.988C688.794 175.024 691.585 174.549 693.076 174.129C705.093 170.744 716.884 169.384 729.325 168.8C730.417 167.927 730.748 166.273 731.261 164.976C731.235 166.144 731.166 167.1 731.537 168.225C734.639 170.235 738.276 168.944 741.725 168.909C742.861 168.898 743.445 168.926 744.312 169.708C741.298 172.173 736.263 168.787 732.69 169.831C731.561 170.161 730.966 170.914 730.631 172.02C730.309 173.081 730.354 174.465 731.008 175.313C735.175 175.502 739.118 173.425 743.292 173.702L742.776 174.03L742.576 173.808L742.369 174.351C741.822 174.374 741.342 174.408 740.809 174.545C737.458 175.405 734.002 176.009 730.613 176.715C731.484 179.402 732.455 181.773 733.798 184.263C738.635 180.437 743.365 177.903 749.292 176.151L749.571 176.363C744.43 179.244 739.255 181.455 734.257 184.68Q734.983 185.354 735.755 185.973Q736.528 186.592 737.344 187.154Q738.159 187.716 739.013 188.217Q739.867 188.718 740.755 189.156Q741.643 189.594 742.56 189.967Q743.478 190.34 744.42 190.645Q745.362 190.95 746.323 191.187Q747.285 191.423 748.261 191.589C753.857 192.597 759.903 192.242 764.62 188.776C770.706 184.303 772.498 177.149 773.402 170.086C763.541 164.355 751.756 157.531 745.406 147.808Z"/>
	<path fill="#F70000" transform="matrix(1.65625 0 0 1.65625 0.000244141 0)" d="M254.157 231.582C250.111 224.968 247.616 216.778 245.789 209.29C240.103 185.981 243.835 158.931 256.354 138.417C270.957 114.488 293.001 98.1228 320.354 91.5508C345.334 85.549 372.911 89.4788 394.878 102.968C418.519 117.486 434.509 140.229 440.832 167.097C440.591 167.333 440.343 167.561 440.11 167.805C439.305 168.645 438.946 169.434 438.697 170.558C436.219 181.709 435.45 192.695 432.075 203.777C429.284 212.939 424.003 221.82 418.437 229.549C399.796 255.438 373.115 271.216 341.17 273.565C316.361 275.388 291.624 268.088 272.741 251.731C269.399 248.836 266.082 245.65 263.104 242.379C260.151 239.137 257.967 233.663 254.157 231.582Z"/>
	<path fill="#D3D3D3" transform="matrix(1.65625 0 0 1.65625 0.000244141 0)" d="M387.491 892.061C391.206 895.305 394.857 898.594 398.942 901.375C426.486 921.454 457.828 935.213 491.958 938.594C547.409 944.087 595.012 929.595 638.108 894.321C644.388 896.065 652.915 895.366 659.485 895.578L708.252 896.946C772.142 899.124 837.898 903.539 901.147 912.439C920.311 915.136 946.965 918.508 964.642 925.912C967.98 927.31 975.881 930.729 976.789 934.537C977.066 935.696 976.736 936.547 976.162 937.525C972.622 943.554 958.45 947.287 952.088 948.964C945.205 950.778 938.13 951.962 931.145 953.33C910.68 957.338 890.531 960.08 869.813 962.52Q796.466 970.903 722.716 974.208Q655.615 978.058 588.418 979.451Q521.222 980.844 454.019 979.778Q386.816 978.711 319.698 975.187Q252.579 971.662 185.634 965.684C155.819 962.836 79.1451 955.705 56.0654 942.027C53.7396 940.649 49.8102 937.884 49.414 934.939C49.2099 933.422 49.9853 932.014 50.974 930.934C58.5039 922.709 83.9248 919.04 95.0931 916.991C119.925 912.435 144.626 909.599 169.696 906.792C242.135 898.683 314.726 895.632 387.491 892.061Z"/>
	<path fill="#F70000" transform="matrix(1.65625 0 0 1.65625 0.000244141 0)" d="M640.499 594.661C639.278 599.027 637.798 603.571 638.047 608.16C640.559 609.992 642.876 611.819 645.112 613.985Q646.829 615.579 648.508 617.214Q650.186 618.85 651.823 620.526Q653.461 622.202 655.057 623.917Q656.653 625.633 658.206 627.387Q659.76 629.141 661.27 630.933Q662.78 632.724 664.246 634.552Q665.712 636.38 667.133 638.243Q668.554 640.107 669.929 642.004Q671.304 643.901 672.632 645.832Q673.96 647.762 675.24 649.725Q676.52 651.687 677.752 653.68Q678.984 655.673 680.167 657.696Q681.35 659.719 682.484 661.77Q683.617 663.821 684.699 665.899Q685.782 667.977 686.813 670.081Q687.845 672.185 688.825 674.313Q689.804 676.442 690.732 678.594Q691.659 680.745 692.533 682.919Q693.408 685.093 694.229 687.288Q695.05 689.482 695.817 691.696Q696.584 693.91 697.297 696.142Q698.01 698.375 698.668 700.623Q699.326 702.872 699.929 705.137Q700.531 707.401 701.079 709.679Q701.626 711.958 702.117 714.249Q702.608 716.54 703.044 718.842Q703.479 721.145 703.857 723.457Q704.236 725.769 704.558 728.09Q704.88 730.411 705.146 732.739Q705.411 735.067 705.619 737.401Q705.827 739.735 705.978 742.073Q706.129 744.412 706.223 746.753C708.112 794.275 688.663 841.925 656.505 876.556C650.696 882.812 644.436 888.601 638.108 894.321C595.012 929.595 547.409 944.087 491.958 938.594C457.828 935.213 426.486 921.454 398.942 901.375C394.857 898.594 391.206 895.305 387.491 892.061C353.195 861.076 336.642 824.938 327.167 780.477C327.128 780.374 327.079 780.273 327.051 780.166C325.883 775.583 325.614 770.295 325.154 765.584C322.303 736.341 326.6 710.207 335.583 682.454C339.046 671.758 343.037 660.742 348.859 651.086C374.285 661.156 397.565 668.866 424.944 671.975C486.856 679.005 547.534 661.629 598.839 627.007C613.406 617.177 626.768 605.601 640.499 594.661Z"/>
	<path fill="#B60402" transform="matrix(1.65625 0 0 1.65625 0.000244141 0)" d="M398.942 901.375C399.95 900.981 400.894 900.627 401.991 900.636C406.445 900.675 411.025 901.472 415.489 901.75C422.535 902.188 429.686 902.185 436.747 902.129C470.997 901.857 510.158 892.947 540.463 876.735C562.055 865.185 582.586 849.599 598.878 831.269C626.069 800.678 646.279 755.277 652.115 714.743Q652.999 708.209 653.488 701.635Q653.977 695.06 654.068 688.467Q654.16 681.875 653.854 675.289Q653.548 668.703 652.846 662.147C651.887 652.819 650.326 643.416 648.371 634.247C647.17 628.617 645.609 622.963 644.645 617.299C644.47 616.273 644.398 615.598 644.79 614.595C644.873 614.381 645.005 614.189 645.112 613.985Q646.829 615.579 648.508 617.214Q650.186 618.85 651.823 620.526Q653.461 622.202 655.057 623.917Q656.653 625.633 658.206 627.387Q659.76 629.141 661.27 630.933Q662.78 632.724 664.246 634.552Q665.712 636.38 667.133 638.243Q668.554 640.107 669.929 642.004Q671.304 643.901 672.632 645.832Q673.96 647.762 675.24 649.725Q676.52 651.687 677.752 653.68Q678.984 655.673 680.167 657.696Q681.35 659.719 682.484 661.77Q683.617 663.821 684.699 665.899Q685.782 667.977 686.813 670.081Q687.845 672.185 688.825 674.313Q689.804 676.442 690.732 678.594Q691.659 680.745 692.533 682.919Q693.408 685.093 694.229 687.288Q695.05 689.482 695.817 691.696Q696.584 693.91 697.297 696.142Q698.01 698.375 698.668 700.623Q699.326 702.872 699.929 705.137Q700.531 707.401 701.079 709.679Q701.626 711.958 702.117 714.249Q702.608 716.54 703.044 718.842Q703.479 721.145 703.857 723.457Q704.236 725.769 704.558 728.09Q704.88 730.411 705.146 732.739Q705.411 735.067 705.619 737.401Q705.827 739.735 705.978 742.073Q706.129 744.412 706.223 746.753C708.112 794.275 688.663 841.925 656.505 876.556C650.696 882.812 644.436 888.601 638.108 894.321C595.012 929.595 547.409 944.087 491.958 938.594C457.828 935.213 426.486 921.454 398.942 901.375Z"/>
	<path fill="#E75B58" transform="matrix(1.65625 0 0 1.65625 0.000244141 0)" d="M620.234 838.115C621.954 838.217 623.785 838.263 625.438 838.782C628.248 839.664 630.838 841.738 632.134 844.403C633.493 847.197 633.476 850.411 632.342 853.276C630.724 857.363 627.515 859.726 623.58 861.338C620.984 861.502 618.586 861.102 616.316 859.765Q615.802 859.462 615.321 859.11Q614.84 858.758 614.396 858.359Q613.953 857.961 613.551 857.52Q613.149 857.079 612.794 856.601Q612.438 856.122 612.132 855.61Q611.825 855.099 611.571 854.559Q611.318 854.02 611.119 853.457Q610.92 852.895 610.778 852.316C609.991 849.136 610.528 845.604 612.382 842.884C614.364 839.976 616.901 838.845 620.234 838.115Z"/>
	<path fill="#D3D3D3" transform="matrix(1.65625 0 0 1.65625 0.000244141 0)" d="M640.499 594.661C639.278 599.027 637.798 603.571 638.047 608.16C623.509 667.241 587.67 714.653 535.681 746.042Q531.356 748.707 526.937 751.216Q522.519 753.724 518.014 756.073Q513.509 758.422 508.923 760.608Q504.337 762.794 499.675 764.815Q495.014 766.835 490.283 768.688Q485.552 770.54 480.758 772.222Q475.963 773.904 471.112 775.413Q466.261 776.923 461.359 778.257Q456.457 779.592 451.51 780.75Q446.563 781.909 441.578 782.889Q436.593 783.87 431.576 784.672Q426.559 785.473 421.516 786.095Q416.474 786.716 411.412 787.157Q406.351 787.597 401.277 787.856Q396.203 788.116 391.123 788.193Q386.043 788.271 380.963 788.166C367.877 787.991 353.33 787.551 340.595 784.316C338.067 783.674 329.178 779.878 327.167 780.477C327.128 780.374 327.079 780.273 327.051 780.166C325.883 775.583 325.614 770.295 325.154 765.584C322.303 736.341 326.6 710.207 335.583 682.454C339.046 671.758 343.037 660.742 348.859 651.086C374.285 661.156 397.565 668.866 424.944 671.975C486.856 679.005 547.534 661.629 598.839 627.007C613.406 617.177 626.768 605.601 640.499 594.661Z"/>
	<path fill="#D3D3D3" transform="matrix(1.65625 0 0 1.65625 0.000244141 0)" d="M247.37 520.07C259.025 524.93 272.286 525.043 284.496 522.438C303.155 518.456 321.008 509.813 337.216 499.917C403.188 459.636 471.113 373.539 488.513 297.665C492.074 282.137 491.3 265.193 491.808 249.321C493.234 204.707 500.025 161.97 524.877 123.892C544.88 93.2428 577.231 68.4542 612.12 57.2621C623.079 53.7465 634.215 52.0627 645.431 49.6986C649.064 54.508 656.101 58.8136 660.861 62.6061Q668.198 68.5069 675.2 74.8025Q691.282 89.3097 706.953 104.259C714.343 111.446 721.417 118.99 728.938 126.037C734.573 131.317 740.502 136.282 746.266 141.421L743.178 144.754C737.072 150.812 734.222 157.013 731.261 164.976C730.748 166.273 730.417 167.927 729.325 168.8C716.884 169.384 705.093 170.744 693.076 174.129C691.585 174.549 688.794 175.024 687.649 175.988C691.604 175.609 695.718 173.957 699.647 173.125Q707.046 171.488 714.58 170.67Q722.114 169.852 729.692 169.861L729.025 175.982C722.291 177.982 695.584 189.102 691.872 193.762C691.703 193.975 691.615 194.241 691.486 194.48C693.409 194.547 698.993 190.041 700.977 188.908C709.045 184.303 719.696 179.162 728.764 177.391C729.817 180.331 730.811 183.257 732.281 186.022C726.857 190.958 711.43 204.481 709.189 210.777C712.227 207.84 714.664 204.354 717.542 201.261C722.382 196.058 727.745 191.343 733.104 186.686C735.674 189.039 738.164 190.726 741.355 192.191Q735.932 208.817 731.745 225.796Q727.559 242.776 724.631 260.017C737.032 260.281 750.867 256.675 762.063 251.498C761.797 257.281 761.296 263.127 762.012 268.892C763.146 294.076 763.614 319.452 762.236 344.635Q761.595 355.685 760.423 366.691C759.866 371.745 758.866 377.072 758.932 382.147C759.018 388.893 761.482 396.455 762.914 403.087Q765.641 415.251 766.958 427.648Q767.317 431.266 767.538 434.895Q767.759 438.524 767.843 442.159Q767.926 445.794 767.871 449.43Q767.817 453.065 767.624 456.696Q767.432 460.327 767.102 463.947Q766.772 467.568 766.305 471.174Q765.838 474.78 765.234 478.365Q764.63 481.95 763.891 485.51Q763.152 489.07 762.279 492.6Q761.405 496.129 760.398 499.623Q759.391 503.116 758.252 506.569Q757.114 510.022 755.845 513.429Q754.576 516.837 753.179 520.193Q751.782 523.55 750.258 526.851Q748.735 530.153 747.087 533.394Q745.439 536.635 743.67 539.811C739.546 547.365 735.185 555.462 729.312 561.8C727.746 563.49 725.957 564.971 724.092 566.317C722.912 566.818 721.51 567.112 720.232 567.203C718.035 567.359 715.934 566.187 714.449 564.649C705.034 554.895 705.958 527.136 706.59 513.925C701.356 520.772 697.14 528.364 692.202 535.421C677.122 556.969 660.463 577.416 640.499 594.661C626.768 605.601 613.406 617.177 598.839 627.007C547.534 661.629 486.856 679.005 424.944 671.975C397.565 668.866 374.285 661.156 348.859 651.086C330.506 644.28 313.228 633.72 297.456 622.287C263.673 597.798 242.072 575.909 220.935 539.608L221.555 539.118C222.563 538.984 223.334 538.8 224.211 538.244C225.448 537.458 225.598 537.139 225.901 535.809C225.036 534.313 223.986 534.119 222.339 533.733C217.41 532.578 212.061 532.605 207.024 532.129C196.769 531.16 186.477 529.528 176.703 526.206C142.859 514.703 123.466 496.377 107.701 464.418C125.865 456.196 158.842 460.092 177.028 466.918C182.302 468.897 188.009 471.265 192.898 474.073C196.569 476.181 203.023 481.976 206.523 482.975C206.004 470.503 208.273 458.617 213.28 447.179C222.165 426.883 239.21 405.62 260.348 397.287C261.172 396.811 261.714 396.572 262.661 396.451C264.283 396.244 265.77 396.857 266.969 397.908C273.045 403.232 275.021 420.057 275.395 427.688C276.977 459.935 269.641 495.634 247.37 520.07Z"/>
	<path fill="#AFA69F" transform="matrix(1.65625 0 0 1.65625 0.000244141 0)" d="M260.348 397.287C259.203 400.106 250.761 407.191 248.196 409.93C227.2 432.354 212.886 455.688 209.818 486.868C208.675 485.608 207.481 484.385 206.523 482.975C206.004 470.503 208.273 458.617 213.28 447.179C222.165 426.883 239.21 405.62 260.348 397.287Z"/>
	<path transform="matrix(1.65625 0 0 1.65625 0.000244141 0)" d="M636.007 107.626C641.672 107.129 647.545 107.896 652.638 110.514Q653.253 110.834 653.852 111.184Q654.45 111.534 655.03 111.914Q655.61 112.294 656.17 112.703Q656.73 113.111 657.269 113.548Q657.808 113.984 658.323 114.447Q658.839 114.911 659.331 115.399Q659.823 115.888 660.29 116.401Q660.756 116.913 661.197 117.449Q661.637 117.985 662.049 118.542Q662.462 119.099 662.846 119.677Q663.229 120.254 663.584 120.85Q663.938 121.446 664.262 122.059Q664.585 122.673 664.878 123.301Q665.17 123.93 665.43 124.573Q665.69 125.215 665.918 125.87Q666.145 126.525 666.339 127.191Q666.504 127.758 666.64 128.332Q666.776 128.906 666.884 129.486Q666.991 130.066 667.07 130.651Q667.148 131.235 667.197 131.823Q667.246 132.411 667.266 133.001Q667.285 133.591 667.276 134.181Q667.266 134.771 667.226 135.359Q667.187 135.948 667.118 136.534Q667.049 137.12 666.952 137.702Q666.854 138.284 666.727 138.86Q666.6 139.436 666.444 140.005Q666.289 140.574 666.105 141.135Q665.921 141.696 665.71 142.246Q665.498 142.797 665.259 143.337Q665.02 143.876 664.755 144.403Q664.489 144.93 664.198 145.443C660.006 152.842 653.676 156.725 645.665 158.853C638.968 159.92 632.64 159.385 626.587 155.988Q626.032 155.674 625.492 155.333Q624.953 154.992 624.432 154.625Q623.911 154.257 623.408 153.864Q622.906 153.471 622.424 153.054Q621.941 152.636 621.481 152.195Q621.02 151.754 620.582 151.29Q620.143 150.826 619.729 150.342Q619.314 149.857 618.925 149.352Q618.535 148.847 618.171 148.323Q617.806 147.799 617.469 147.258Q617.131 146.717 616.821 146.159Q616.511 145.602 616.229 145.03Q615.947 144.458 615.694 143.872Q615.441 143.286 615.217 142.689Q614.994 142.091 614.8 141.484Q614.607 140.876 614.444 140.259Q614.27 139.637 614.127 139.007Q613.985 138.376 613.875 137.74Q613.765 137.103 613.688 136.461Q613.611 135.82 613.566 135.175Q613.522 134.531 613.511 133.885Q613.5 133.239 613.522 132.593Q613.544 131.947 613.599 131.303Q613.654 130.659 613.742 130.019Q613.83 129.379 613.95 128.744Q614.071 128.11 614.224 127.482Q614.377 126.854 614.561 126.235Q614.746 125.616 614.963 125.007Q615.179 124.398 615.426 123.801Q615.673 123.204 615.951 122.621Q616.228 122.037 616.535 121.469Q616.842 120.9 617.178 120.348C621.486 113.265 628.178 109.506 636.007 107.626Z"/>
	<path fill="white" transform="matrix(1.65625 0 0 1.65625 0.000244141 0)" d="M630.098 120.497C631.036 120.566 631.953 120.619 632.855 120.912Q633.251 121.04 633.631 121.208Q634.012 121.376 634.372 121.583Q634.733 121.79 635.07 122.034Q635.407 122.278 635.717 122.555Q636.027 122.833 636.306 123.141Q636.585 123.449 636.831 123.785Q637.076 124.121 637.285 124.481Q637.494 124.84 637.664 125.22C638.463 126.98 638.515 129.019 637.698 130.786C636.674 133.001 635.094 133.539 632.93 134.293C631.985 134.195 631.061 134.105 630.15 133.82C627.941 133.13 626.011 131.606 625.041 129.472C624.371 127.998 624.286 126.373 624.905 124.859C625.898 122.432 627.801 121.467 630.098 120.497Z"/>
	<path fill="#AFA69F" transform="matrix(1.65625 0 0 1.65625 0.000244141 0)" d="M509.487 378.386C514.987 388.04 517.635 399.064 519.107 409.989C523.886 445.452 514.358 477.2 496.55 507.564C490.942 517.127 481.349 525.108 478.943 536.303C478.379 538.93 478.329 541.666 479.961 543.943C482.191 547.057 486.359 548.257 489.971 548.689C508.465 550.904 529.169 538.192 543.083 527.316C579.743 498.659 600.63 460.096 609.281 414.857C610.973 406.011 611.733 397.171 612.832 388.247L613.044 396.079C612.08 428.338 605.648 458.305 589.423 486.474C573.327 514.419 537.531 550.077 506.218 558.368C498.239 560.48 487.666 561.596 480.297 557.052C476.959 554.994 474.883 551.856 474.057 548.042C471.199 534.843 481.55 525.582 488.01 515.544C509.829 481.644 518.075 437.717 513.317 398.018C512.523 391.39 510.835 384.914 509.487 378.386Z"/>
	<path fill="#AFA69F" transform="matrix(1.65625 0 0 1.65625 0.000244141 0)" d="M578.718 198.84C587.067 210.26 593.245 222.209 603.857 232.021C625.67 252.188 655.255 256.618 683.649 258.865C697.48 259.96 710.741 260.531 724.631 260.017Q722.18 271.978 720.319 284.045L719.879 284.073C693.182 284.926 664.726 282.355 640.301 270.879C608.641 256.005 590.235 230.937 578.718 198.84Z"/>
	<path fill="#AFA6A0" transform="matrix(1.65625 0 0 1.65625 0.000244141 0)" d="M724.631 260.017C737.032 260.281 750.867 256.675 762.063 251.498C761.797 257.281 761.296 263.127 762.012 268.892C763.146 294.076 763.614 319.452 762.236 344.635Q761.595 355.685 760.423 366.691C759.866 371.745 758.866 377.072 758.932 382.147C759.018 388.893 761.482 396.455 762.914 403.087Q765.641 415.251 766.958 427.648Q767.317 431.266 767.538 434.895Q767.759 438.524 767.843 442.159Q767.926 445.794 767.871 449.43Q767.817 453.065 767.624 456.696Q767.432 460.327 767.102 463.947Q766.772 467.568 766.305 471.174Q765.838 474.78 765.234 478.365Q764.63 481.95 763.891 485.51Q763.152 489.07 762.279 492.6Q761.405 496.129 760.398 499.623Q759.391 503.116 758.252 506.569Q757.114 510.022 755.845 513.429Q754.576 516.837 753.179 520.193Q751.782 523.55 750.258 526.851Q748.735 530.153 747.087 533.394Q745.439 536.635 743.67 539.811C739.546 547.365 735.185 555.462 729.312 561.8C727.746 563.49 725.957 564.971 724.092 566.317C722.912 566.818 721.51 567.112 720.232 567.203C718.035 567.359 715.934 566.187 714.449 564.649C705.034 554.895 705.958 527.136 706.59 513.925C701.356 520.772 697.14 528.364 692.202 535.421C677.122 556.969 660.463 577.416 640.499 594.661C626.768 605.601 613.406 617.177 598.839 627.007C547.534 661.629 486.856 679.005 424.944 671.975C397.565 668.866 374.285 661.156 348.859 651.086C330.506 644.28 313.228 633.72 297.456 622.287C263.673 597.798 242.072 575.909 220.935 539.608L221.555 539.118C223.277 542.123 225.924 544.93 228.078 547.671C236.027 557.787 243.987 567.555 253.64 576.141C296.262 614.047 364.519 629.996 420.447 626.656Q424.076 626.448 427.698 626.151Q431.321 625.854 434.935 625.468Q438.549 625.082 442.153 624.607Q445.757 624.132 449.347 623.568Q452.938 623.004 456.514 622.352Q460.09 621.7 463.648 620.96Q467.207 620.22 470.746 619.393Q474.285 618.566 477.803 617.651Q481.321 616.737 484.815 615.736Q488.31 614.735 491.778 613.649Q495.247 612.562 498.688 611.391Q502.128 610.219 505.539 608.963Q508.95 607.707 512.329 606.367Q515.708 605.027 519.052 603.604Q522.397 602.182 525.706 600.677Q529.014 599.173 532.285 597.587Q535.556 596.001 538.786 594.335Q542.017 592.67 545.205 590.925Q548.394 589.18 551.539 587.357Q554.683 585.534 557.782 583.634Q560.881 581.734 563.932 579.759Q566.982 577.783 569.984 575.733Q572.985 573.683 575.935 571.559Q578.885 569.436 581.782 567.24Q584.678 565.045 587.52 562.779Q590.362 560.512 593.147 558.177Q595.932 555.841 598.659 553.438Q601.385 551.034 604.052 548.564Q606.719 546.094 609.323 543.559Q611.928 541.024 614.47 538.426Q617.012 535.828 619.489 533.168Q621.965 530.507 624.376 527.787C674.308 471.454 698.725 403.652 713.074 330.873C715.055 320.826 716.449 310.651 717.939 300.521C718.706 295.305 720.195 289.311 719.879 284.073L720.319 284.045Q722.18 271.978 724.631 260.017Z"/>
	<path fill="#757474" transform="matrix(1.65625 0 0 1.65625 0.000244141 0)" d="M724.631 260.017C737.032 260.281 750.867 256.675 762.063 251.498C761.797 257.281 761.296 263.127 762.012 268.892C748.72 275.677 735.659 283.271 720.319 284.045Q722.18 271.978 724.631 260.017Z"/>
	<path fill="#757474" transform="matrix(1.65625 0 0 1.65625 0.000244141 0)" d="M706.59 513.925C708.562 507.446 718.239 493.86 722.103 486.634C735.897 460.838 752.943 421.645 756.74 392.563L757.265 392.273L757.08 392.518L757.275 392.705C755.711 412.496 750.273 433.629 744.298 452.485C734.902 482.133 714.043 518.804 716.443 550.275C716.728 554.013 717.204 558.44 719.65 561.43C721.027 563.113 722.875 564.53 724.092 566.317C722.912 566.818 721.51 567.112 720.232 567.203C718.035 567.359 715.934 566.187 714.449 564.649C705.034 554.895 705.958 527.136 706.59 513.925Z"/>
</svg>
