<svg width="24" height="24" viewBox="0 0 24 24" fill="none" xmlns="http://www.w3.org/2000/svg">
  <!-- Bulb -->
  <path d="M12 3C10.34 3 9 4.34 9 6C9 7.31 9.69 8.47 10.7 9.08C10.24 9.68 10 10.41 10 11.2C10 13.4 11.6 15.2 13.6 15.2C15.6 15.2 17.2 13.4 17.2 11.2C17.2 10.41 16.96 9.68 16.5 9.08C17.51 8.47 18.2 7.31 18.2 6C18.2 4.34 16.86 3 15.2 3M12 3C13.66 3 15 4.34 15 6M12 21V19M8 19H16" stroke="#a78bfa" stroke-width="1.5" stroke-linecap="round" stroke-linejoin="round" fill="none"/>
  
  <!-- Socket bottom -->
  <rect x="11" y="19" width="2" height="2" fill="#a78bfa" rx="0.5"/>
  
  <!-- Wire coil indicator (off state) -->
  <path d="M11.5 15.2C11.3 15.2 11.2 15.3 11.2 15.5" stroke="#a78bfa" stroke-width="1" opacity="0.6"/>
</svg>
